<svg xmlns="http://www.w3.org/2000/svg" width="954" height="666" fill="none" viewBox="0 0 954 666"><g clip-path="url(#clip0)"><rect width="954" height="666" fill="#fff"/><mask id="mask0" width="389" height="390" x="-2" y="64" mask-type="alpha" maskUnits="userSpaceOnUse"><rect width="275" height="275" x="192.455" y="64.425" fill="#0FF" rx="8" transform="rotate(45 192.455 64.425)"/></mask><g mask="url(#mask0)"><rect width="275" height="69" x="-2" y="258.879" fill="#000040" transform="rotate(-45 -2 258.879)"/><rect width="275" height="68" x="46.791" y="307.67" fill="#0000BF" transform="rotate(-45 46.7905 307.67)"/><rect width="275" height="69" x="94.874" y="355.753" fill="#4040FF" transform="rotate(-45 94.8735 355.753)"/><rect width="275" height="69" x="143.664" y="404.543" fill="#BFBFFF" transform="rotate(-45 143.664 404.543)"/></g><mask id="mask1" width="390" height="390" x="353" y="-3" mask-type="alpha" maskUnits="userSpaceOnUse"><rect width="275" height="275" x="548.129" y="-2.75" fill="#0FF" rx="8" transform="rotate(45 548.129 -2.75)"/></mask><g mask="url(#mask1)"><rect width="275" height="69" x="353.675" y="191.704" fill="#004000" transform="rotate(-45 353.675 191.704)"/><rect width="275" height="68" x="402.465" y="240.495" fill="#00BF00" transform="rotate(-45 402.465 240.495)"/><rect width="275" height="69" x="450.548" y="288.578" fill="#40FF40" transform="rotate(-45 450.548 288.578)"/><rect width="275" height="69" x="499.339" y="337.368" fill="#BFFFBF" transform="rotate(-45 499.339 337.368)"/></g><mask id="mask2" width="390" height="390" x="209" y="275" mask-type="alpha" maskUnits="userSpaceOnUse"><rect width="275" height="275" x="403.879" y="275.85" fill="#0FF" rx="8" transform="rotate(45 403.879 275.85)"/></mask><g mask="url(#mask2)"><rect width="275" height="69" x="209.425" y="470.304" fill="#400000" transform="rotate(-45 209.425 470.304)"/><rect width="275" height="68" x="258.215" y="519.095" fill="#BF0000" transform="rotate(-45 258.215 519.095)"/><rect width="275" height="69" x="306.298" y="567.178" fill="#FF4040" transform="rotate(-45 306.298 567.178)"/><rect width="275" height="69" x="355.089" y="615.968" fill="#FFBFBF" transform="rotate(-45 355.089 615.968)"/></g><mask id="mask3" width="390" height="390" x="565" y="208" mask-type="alpha" maskUnits="userSpaceOnUse"><rect width="275" height="275" x="759.554" y="208.675" fill="#0FF" rx="8" transform="rotate(45 759.554 208.675)"/></mask><g mask="url(#mask3)"><rect width="275" height="69" x="565.1" y="403.129" fill="#1B0040" transform="rotate(-45 565.1 403.129)"/><rect width="275" height="68" x="613.89" y="451.92" fill="#5200BF" transform="rotate(-45 613.89 451.92)"/><rect width="275" height="69" x="661.973" y="500.003" fill="#9240FF" transform="rotate(-45 661.973 500.003)"/><rect width="275" height="69" x="710.764" y="548.793" fill="#DBBFFF" transform="rotate(-45 710.764 548.793)"/></g></g><defs><clipPath id="clip0"><rect width="954" height="666" fill="#fff"/></clipPath></defs></svg>